<?xml version="1.0" encoding="UTF-8"?><svg id="Lag_1" xmlns="http://www.w3.org/2000/svg" xmlns:xlink="http://www.w3.org/1999/xlink" viewBox="0 0 372.5 42.92"><defs><style>.cls-1{fill:#2b2b2a;}.cls-2{stroke-width:3px;}.cls-2,.cls-3,.cls-4{fill:none;}.cls-2,.cls-4{stroke:#2b2b2a;}.cls-5{clip-path:url(#clippath-1);}.cls-4{stroke-width:2.8px;}.cls-6{clip-path:url(#clippath);}</style><clipPath id="clippath"><rect class="cls-3" width="372.5" height="42.92"/></clipPath><clipPath id="clippath-1"><rect class="cls-3" width="372.5" height="42.92"/></clipPath></defs><g class="cls-6"><polyline class="cls-2" points="1.5 42 1.5 5 32.55 39.05 32.55 1.05"/><line class="cls-2" x1="68" y1="1" x2="68" y2="42"/><path class="cls-2" d="M103.5,42V3h10s9,1,9,10c0,7.2-5.76,9.28-8.06,9.82-.58.14-.94.18-.94.18h-10"/></g><polygon class="cls-1" points="113.5 24 124.5 42 127.5 42 116.5 23 113.5 24"/><polygon class="cls-1" points="157.5 0 157.5 42 160.5 42 160.5 9 177.5 32 193.5 9 193.5 42 196.5 42 196.5 1 177.5 28 157.5 0"/><polygon class="cls-1" points="242.79 0 225.79 42 228.79 42 242.79 7 256.79 42 259.79 42 242.79 0"/><g class="cls-5"><line class="cls-4" x1="285.5" y1="2.82" x2="312.5" y2="2.82"/><line class="cls-4" x1="299" y1="3" x2="299" y2="42"/></g><polygon class="cls-1" points="355.5 0 338.5 42 341.5 42 355.5 7 369.5 42 372.5 42 355.5 0"/></svg>